<mxfile host="app.diagrams.net" agent="Mozilla/5.0 (Windows NT 10.0; Win64; x64) AppleWebKit/537.36 (KHTML, like Gecko) Chrome/138.0.0.0 Safari/537.36" version="27.2.0">
  <diagram name="Halaman-1" id="The1kgW9OQD0BTT8Ciuh">
    <mxGraphModel dx="1869" dy="562" grid="1" gridSize="10" guides="1" tooltips="1" connect="1" arrows="1" fold="1" page="1" pageScale="1" pageWidth="827" pageHeight="1169" math="0" shadow="0">
      <root>
        <mxCell id="0" />
        <mxCell id="1" parent="0" />
        <mxCell id="0evljWXcNuj1FvUsImtk-3" value="" style="edgeStyle=orthogonalEdgeStyle;rounded=0;orthogonalLoop=1;jettySize=auto;html=1;strokeColor=#00FFFF;fontColor=#00FFFF;" parent="1" source="0evljWXcNuj1FvUsImtk-1" target="0evljWXcNuj1FvUsImtk-2" edge="1">
          <mxGeometry relative="1" as="geometry" />
        </mxCell>
        <mxCell id="0evljWXcNuj1FvUsImtk-1" value="&lt;font style=&quot;font-size: 14px;&quot;&gt;Start&lt;/font&gt;" style="ellipse;whiteSpace=wrap;html=1;strokeColor=#00FFFF;fontColor=#00FFFF;" parent="1" vertex="1">
          <mxGeometry x="250" width="120" height="80" as="geometry" />
        </mxCell>
        <mxCell id="0evljWXcNuj1FvUsImtk-5" value="" style="edgeStyle=orthogonalEdgeStyle;rounded=0;orthogonalLoop=1;jettySize=auto;html=1;strokeColor=#00FFFF;fontColor=#00FFFF;" parent="1" source="0evljWXcNuj1FvUsImtk-2" edge="1">
          <mxGeometry relative="1" as="geometry">
            <mxPoint x="310" y="250" as="targetPoint" />
          </mxGeometry>
        </mxCell>
        <mxCell id="0evljWXcNuj1FvUsImtk-2" value="&lt;font style=&quot;font-size: 14px;&quot;&gt;Inisialisasi Wifi&lt;/font&gt;&lt;div&gt;&lt;font style=&quot;font-size: 14px;&quot;&gt;Inisialisasi Blynk App&lt;/font&gt;&lt;/div&gt;&lt;div&gt;&lt;font style=&quot;font-size: 14px;&quot;&gt;Inisialisasi Sensor&lt;/font&gt;&lt;/div&gt;&lt;div&gt;&lt;font style=&quot;font-size: 14px;&quot;&gt;Inisialisasi ESP32&lt;/font&gt;&lt;/div&gt;&lt;div&gt;&lt;font style=&quot;font-size: 14px;&quot;&gt;Inisialisasai Servo&lt;/font&gt;&lt;/div&gt;" style="shape=hexagon;perimeter=hexagonPerimeter2;whiteSpace=wrap;html=1;fixedSize=1;strokeColor=#00FFFF;fontColor=#00FFFF;" parent="1" vertex="1">
          <mxGeometry x="110" y="110" width="400" height="100" as="geometry" />
        </mxCell>
        <mxCell id="0evljWXcNuj1FvUsImtk-8" value="" style="edgeStyle=orthogonalEdgeStyle;rounded=0;orthogonalLoop=1;jettySize=auto;html=1;strokeColor=#00FFFF;fontColor=#00FFFF;" parent="1" source="0evljWXcNuj1FvUsImtk-6" target="0evljWXcNuj1FvUsImtk-7" edge="1">
          <mxGeometry relative="1" as="geometry" />
        </mxCell>
        <mxCell id="0evljWXcNuj1FvUsImtk-6" value="&lt;span style=&quot;font-size: 14px;&quot;&gt;Timer 2s membaca sensor&lt;/span&gt;" style="rounded=0;whiteSpace=wrap;html=1;strokeColor=#00FFFF;fontColor=#00FFFF;" parent="1" vertex="1">
          <mxGeometry x="190" y="250" width="240" height="60" as="geometry" />
        </mxCell>
        <mxCell id="0evljWXcNuj1FvUsImtk-10" value="" style="edgeStyle=orthogonalEdgeStyle;rounded=0;orthogonalLoop=1;jettySize=auto;html=1;strokeColor=#00FFFF;fontColor=#00FFFF;" parent="1" source="0evljWXcNuj1FvUsImtk-7" target="0evljWXcNuj1FvUsImtk-9" edge="1">
          <mxGeometry relative="1" as="geometry" />
        </mxCell>
        <mxCell id="0evljWXcNuj1FvUsImtk-7" value="Baca data sensor :&lt;br&gt;suhu, kelembapan, cahaya, dan hujan" style="rounded=0;whiteSpace=wrap;html=1;strokeColor=#00FFFF;fontColor=#00FFFF;" parent="1" vertex="1">
          <mxGeometry x="190" y="350" width="240" height="60" as="geometry" />
        </mxCell>
        <mxCell id="0evljWXcNuj1FvUsImtk-18" value="" style="edgeStyle=orthogonalEdgeStyle;rounded=0;orthogonalLoop=1;jettySize=auto;html=1;strokeColor=#00FFFF;fontColor=#00FFFF;" parent="1" source="0evljWXcNuj1FvUsImtk-9" target="0evljWXcNuj1FvUsImtk-11" edge="1">
          <mxGeometry relative="1" as="geometry" />
        </mxCell>
        <mxCell id="0evljWXcNuj1FvUsImtk-9" value="Kirim data ke Blynk&lt;div&gt;(V0-V5)&lt;/div&gt;" style="rounded=0;whiteSpace=wrap;html=1;strokeColor=#00FFFF;fontColor=#00FFFF;" parent="1" vertex="1">
          <mxGeometry x="190" y="450" width="240" height="60" as="geometry" />
        </mxCell>
        <mxCell id="0evljWXcNuj1FvUsImtk-14" value="" style="edgeStyle=orthogonalEdgeStyle;rounded=0;orthogonalLoop=1;jettySize=auto;html=1;strokeColor=#00FFFF;fontColor=#00FFFF;" parent="1" source="0evljWXcNuj1FvUsImtk-11" target="0evljWXcNuj1FvUsImtk-12" edge="1">
          <mxGeometry relative="1" as="geometry">
            <Array as="points">
              <mxPoint x="470" y="610" />
              <mxPoint x="470" y="610" />
            </Array>
          </mxGeometry>
        </mxCell>
        <mxCell id="0evljWXcNuj1FvUsImtk-17" value="" style="edgeStyle=orthogonalEdgeStyle;rounded=0;orthogonalLoop=1;jettySize=auto;html=1;strokeColor=#00FFFF;fontColor=#00FFFF;" parent="1" source="0evljWXcNuj1FvUsImtk-11" target="0evljWXcNuj1FvUsImtk-16" edge="1">
          <mxGeometry relative="1" as="geometry" />
        </mxCell>
        <mxCell id="0evljWXcNuj1FvUsImtk-11" value="Mode Otomatis?&lt;br&gt;(V4 dari Blynk)" style="rhombus;whiteSpace=wrap;html=1;strokeColor=#00FFFF;fontColor=#00FFFF;" parent="1" vertex="1">
          <mxGeometry x="245" y="550" width="130" height="120" as="geometry" />
        </mxCell>
        <mxCell id="0evljWXcNuj1FvUsImtk-23" value="" style="edgeStyle=orthogonalEdgeStyle;rounded=0;orthogonalLoop=1;jettySize=auto;html=1;strokeColor=#00FFFF;fontColor=#00FFFF;" parent="1" source="0evljWXcNuj1FvUsImtk-12" target="0evljWXcNuj1FvUsImtk-21" edge="1">
          <mxGeometry relative="1" as="geometry" />
        </mxCell>
        <mxCell id="TvePASzRf-sDk96TzlbR-5" style="edgeStyle=orthogonalEdgeStyle;rounded=0;orthogonalLoop=1;jettySize=auto;html=1;entryX=0.5;entryY=0;entryDx=0;entryDy=0;strokeColor=#00FFFF;" edge="1" parent="1" source="0evljWXcNuj1FvUsImtk-12" target="0evljWXcNuj1FvUsImtk-38">
          <mxGeometry relative="1" as="geometry" />
        </mxCell>
        <mxCell id="0evljWXcNuj1FvUsImtk-12" value="Kontrol Manual == 1" style="rhombus;whiteSpace=wrap;html=1;strokeColor=#00FFFF;fontColor=#00FFFF;" parent="1" vertex="1">
          <mxGeometry x="490" y="555" width="130" height="110" as="geometry" />
        </mxCell>
        <mxCell id="0evljWXcNuj1FvUsImtk-15" value="Tidak (manual)" style="text;html=1;align=center;verticalAlign=middle;whiteSpace=wrap;rounded=0;strokeColor=none;fontColor=#00FFFF;" parent="1" vertex="1">
          <mxGeometry x="380" y="580" width="90" height="30" as="geometry" />
        </mxCell>
        <mxCell id="0evljWXcNuj1FvUsImtk-22" value="" style="edgeStyle=orthogonalEdgeStyle;rounded=0;orthogonalLoop=1;jettySize=auto;html=1;strokeColor=#00FFFF;fontColor=#00FFFF;" parent="1" source="0evljWXcNuj1FvUsImtk-16" target="0evljWXcNuj1FvUsImtk-20" edge="1">
          <mxGeometry relative="1" as="geometry" />
        </mxCell>
        <mxCell id="TvePASzRf-sDk96TzlbR-8" style="edgeStyle=orthogonalEdgeStyle;rounded=0;orthogonalLoop=1;jettySize=auto;html=1;entryX=0.5;entryY=0;entryDx=0;entryDy=0;strokeColor=#00FFFF;" edge="1" parent="1" source="0evljWXcNuj1FvUsImtk-16" target="0evljWXcNuj1FvUsImtk-30">
          <mxGeometry relative="1" as="geometry" />
        </mxCell>
        <mxCell id="0evljWXcNuj1FvUsImtk-16" value="Apakah hujan?" style="rhombus;whiteSpace=wrap;html=1;strokeColor=#00FFFF;fontColor=#00FFFF;" parent="1" vertex="1">
          <mxGeometry x="245" y="700" width="130" height="110" as="geometry" />
        </mxCell>
        <mxCell id="0evljWXcNuj1FvUsImtk-19" value="Ya" style="text;html=1;align=center;verticalAlign=middle;whiteSpace=wrap;rounded=0;strokeColor=none;fontColor=#00FFFF;" parent="1" vertex="1">
          <mxGeometry x="270" y="665" width="60" height="30" as="geometry" />
        </mxCell>
        <mxCell id="0evljWXcNuj1FvUsImtk-27" value="" style="edgeStyle=orthogonalEdgeStyle;rounded=0;orthogonalLoop=1;jettySize=auto;html=1;strokeColor=#00FFFF;fontColor=#00FFFF;" parent="1" source="0evljWXcNuj1FvUsImtk-20" target="0evljWXcNuj1FvUsImtk-26" edge="1">
          <mxGeometry relative="1" as="geometry">
            <Array as="points">
              <mxPoint x="315" y="990" />
              <mxPoint x="315" y="990" />
            </Array>
          </mxGeometry>
        </mxCell>
        <mxCell id="0evljWXcNuj1FvUsImtk-20" value="Tutup Jemuran" style="rounded=0;whiteSpace=wrap;html=1;strokeColor=#00FFFF;fontColor=#00FFFF;" parent="1" vertex="1">
          <mxGeometry x="250" y="840" width="120" height="60" as="geometry" />
        </mxCell>
        <mxCell id="0evljWXcNuj1FvUsImtk-29" value="" style="edgeStyle=orthogonalEdgeStyle;rounded=0;orthogonalLoop=1;jettySize=auto;html=1;strokeColor=#00FFFF;fontColor=#00FFFF;" parent="1" source="0evljWXcNuj1FvUsImtk-21" target="0evljWXcNuj1FvUsImtk-28" edge="1">
          <mxGeometry relative="1" as="geometry" />
        </mxCell>
        <mxCell id="0evljWXcNuj1FvUsImtk-21" value="Buka Jemuran" style="rounded=0;whiteSpace=wrap;html=1;strokeColor=#00FFFF;fontColor=#00FFFF;" parent="1" vertex="1">
          <mxGeometry x="495" y="710" width="120" height="60" as="geometry" />
        </mxCell>
        <mxCell id="0evljWXcNuj1FvUsImtk-24" value="Ya" style="text;html=1;align=center;verticalAlign=middle;whiteSpace=wrap;rounded=0;strokeColor=none;fontColor=#00FFFF;" parent="1" vertex="1">
          <mxGeometry x="255" y="800" width="60" height="30" as="geometry" />
        </mxCell>
        <mxCell id="0evljWXcNuj1FvUsImtk-25" value="Ya" style="text;html=1;align=center;verticalAlign=middle;whiteSpace=wrap;rounded=0;strokeColor=none;fontColor=#00FFFF;" parent="1" vertex="1">
          <mxGeometry x="510" y="665" width="60" height="30" as="geometry" />
        </mxCell>
        <mxCell id="TvePASzRf-sDk96TzlbR-16" style="edgeStyle=orthogonalEdgeStyle;rounded=0;orthogonalLoop=1;jettySize=auto;html=1;entryX=1;entryY=0.5;entryDx=0;entryDy=0;strokeColor=#00FFFF;" edge="1" parent="1" source="0evljWXcNuj1FvUsImtk-26" target="0evljWXcNuj1FvUsImtk-50">
          <mxGeometry relative="1" as="geometry" />
        </mxCell>
        <mxCell id="0evljWXcNuj1FvUsImtk-26" value="Kirim status ke Blynk (V6)" style="rounded=0;whiteSpace=wrap;html=1;strokeColor=#00FFFF;fontColor=#00FFFF;" parent="1" vertex="1">
          <mxGeometry x="255" y="1070" width="120" height="60" as="geometry" />
        </mxCell>
        <mxCell id="TvePASzRf-sDk96TzlbR-14" style="edgeStyle=orthogonalEdgeStyle;rounded=0;orthogonalLoop=1;jettySize=auto;html=1;entryX=0;entryY=0.5;entryDx=0;entryDy=0;strokeColor=#00FFFF;" edge="1" parent="1" source="0evljWXcNuj1FvUsImtk-28" target="TvePASzRf-sDk96TzlbR-13">
          <mxGeometry relative="1" as="geometry" />
        </mxCell>
        <mxCell id="0evljWXcNuj1FvUsImtk-28" value="Kirim Status ke Blynk (V6)" style="rounded=0;whiteSpace=wrap;html=1;strokeColor=#00FFFF;fontColor=#00FFFF;" parent="1" vertex="1">
          <mxGeometry x="495" y="810" width="120" height="60" as="geometry" />
        </mxCell>
        <mxCell id="0evljWXcNuj1FvUsImtk-33" value="" style="edgeStyle=orthogonalEdgeStyle;rounded=0;orthogonalLoop=1;jettySize=auto;html=1;strokeColor=#00FFFF;fontColor=#00FFFF;" parent="1" source="0evljWXcNuj1FvUsImtk-30" target="0evljWXcNuj1FvUsImtk-32" edge="1">
          <mxGeometry relative="1" as="geometry" />
        </mxCell>
        <mxCell id="0evljWXcNuj1FvUsImtk-35" value="" style="edgeStyle=orthogonalEdgeStyle;rounded=0;orthogonalLoop=1;jettySize=auto;html=1;strokeColor=#00FFFF;fontColor=#00FFFF;" parent="1" source="0evljWXcNuj1FvUsImtk-30" target="0evljWXcNuj1FvUsImtk-34" edge="1">
          <mxGeometry relative="1" as="geometry" />
        </mxCell>
        <mxCell id="0evljWXcNuj1FvUsImtk-30" value="Cahaya &amp;gt;= 500" style="rhombus;whiteSpace=wrap;html=1;strokeColor=#00FFFF;fontColor=#00FFFF;" parent="1" vertex="1">
          <mxGeometry x="35" y="840" width="130" height="110" as="geometry" />
        </mxCell>
        <mxCell id="0evljWXcNuj1FvUsImtk-49" value="" style="edgeStyle=orthogonalEdgeStyle;rounded=0;orthogonalLoop=1;jettySize=auto;html=1;strokeColor=#00FFFF;fontColor=#00FFFF;" parent="1" source="0evljWXcNuj1FvUsImtk-32" target="0evljWXcNuj1FvUsImtk-48" edge="1">
          <mxGeometry relative="1" as="geometry" />
        </mxCell>
        <mxCell id="0evljWXcNuj1FvUsImtk-32" value="Tutup Jemuran" style="whiteSpace=wrap;html=1;strokeColor=#00FFFF;fontColor=#00FFFF;" parent="1" vertex="1">
          <mxGeometry x="40" y="979" width="120" height="60" as="geometry" />
        </mxCell>
        <mxCell id="0evljWXcNuj1FvUsImtk-34" value="Buka Jemuran" style="whiteSpace=wrap;html=1;strokeColor=#00FFFF;fontColor=#00FFFF;" parent="1" vertex="1">
          <mxGeometry x="-130" y="865" width="120" height="60" as="geometry" />
        </mxCell>
        <mxCell id="0evljWXcNuj1FvUsImtk-42" value="" style="edgeStyle=orthogonalEdgeStyle;rounded=0;orthogonalLoop=1;jettySize=auto;html=1;strokeColor=#00FFFF;fontColor=#00FFFF;" parent="1" source="0evljWXcNuj1FvUsImtk-38" target="0evljWXcNuj1FvUsImtk-41" edge="1">
          <mxGeometry relative="1" as="geometry" />
        </mxCell>
        <mxCell id="0evljWXcNuj1FvUsImtk-38" value="Tutup Jemuran" style="rounded=0;whiteSpace=wrap;html=1;strokeColor=#00FFFF;fontColor=#00FFFF;" parent="1" vertex="1">
          <mxGeometry x="660" y="710" width="120" height="60" as="geometry" />
        </mxCell>
        <mxCell id="TvePASzRf-sDk96TzlbR-15" style="edgeStyle=orthogonalEdgeStyle;rounded=0;orthogonalLoop=1;jettySize=auto;html=1;entryX=1;entryY=0.5;entryDx=0;entryDy=0;strokeColor=#00FFFF;" edge="1" parent="1" source="0evljWXcNuj1FvUsImtk-41" target="TvePASzRf-sDk96TzlbR-13">
          <mxGeometry relative="1" as="geometry" />
        </mxCell>
        <mxCell id="0evljWXcNuj1FvUsImtk-41" value="Kirim status ke Blynk (V6)" style="rounded=0;whiteSpace=wrap;html=1;strokeColor=#00FFFF;fontColor=#00FFFF;" parent="1" vertex="1">
          <mxGeometry x="660" y="810" width="120" height="60" as="geometry" />
        </mxCell>
        <mxCell id="0evljWXcNuj1FvUsImtk-44" value="Tidak" style="text;html=1;align=center;verticalAlign=middle;whiteSpace=wrap;rounded=0;strokeColor=none;fontColor=#00FFFF;" parent="1" vertex="1">
          <mxGeometry x="150" y="725" width="60" height="30" as="geometry" />
        </mxCell>
        <mxCell id="0evljWXcNuj1FvUsImtk-45" value="Ya" style="text;html=1;align=center;verticalAlign=middle;whiteSpace=wrap;rounded=0;strokeColor=none;fontColor=#00FFFF;" parent="1" vertex="1">
          <mxGeometry x="-10" y="865" width="60" height="30" as="geometry" />
        </mxCell>
        <mxCell id="0evljWXcNuj1FvUsImtk-46" value="Tidak" style="text;html=1;align=center;verticalAlign=middle;whiteSpace=wrap;rounded=0;strokeColor=none;fontColor=#00FFFF;" parent="1" vertex="1">
          <mxGeometry x="90" y="940" width="60" height="30" as="geometry" />
        </mxCell>
        <mxCell id="0evljWXcNuj1FvUsImtk-47" value="Tidak" style="text;html=1;align=center;verticalAlign=middle;whiteSpace=wrap;rounded=0;strokeColor=none;fontColor=#00FFFF;" parent="1" vertex="1">
          <mxGeometry x="640" y="580" width="60" height="30" as="geometry" />
        </mxCell>
        <mxCell id="TvePASzRf-sDk96TzlbR-17" style="edgeStyle=orthogonalEdgeStyle;rounded=0;orthogonalLoop=1;jettySize=auto;html=1;entryX=0;entryY=0.5;entryDx=0;entryDy=0;strokeColor=#00FFFF;" edge="1" parent="1" source="0evljWXcNuj1FvUsImtk-48" target="0evljWXcNuj1FvUsImtk-50">
          <mxGeometry relative="1" as="geometry" />
        </mxCell>
        <mxCell id="0evljWXcNuj1FvUsImtk-48" value="Kirim status ke Blynk&lt;br&gt;(V6 - status jemuran)" style="whiteSpace=wrap;html=1;strokeColor=#00FFFF;fontColor=#00FFFF;" parent="1" vertex="1">
          <mxGeometry x="40" y="1070" width="120" height="60" as="geometry" />
        </mxCell>
        <mxCell id="0evljWXcNuj1FvUsImtk-50" value="Tunggu 2 detik lalu ulangi" style="whiteSpace=wrap;html=1;strokeColor=#00FFFF;fontColor=#00FFFF;" parent="1" vertex="1">
          <mxGeometry x="150" y="1169" width="120" height="60" as="geometry" />
        </mxCell>
        <mxCell id="TvePASzRf-sDk96TzlbR-13" value="Tunggu 2 detik lalu ulangi" style="whiteSpace=wrap;html=1;strokeColor=#00FFFF;fontColor=#00FFFF;" vertex="1" parent="1">
          <mxGeometry x="580" y="919" width="120" height="60" as="geometry" />
        </mxCell>
      </root>
    </mxGraphModel>
  </diagram>
</mxfile>
